<?xml version="1.0" standalone="no"?>
<!DOCTYPE svg PUBLIC "-//W3C//DTD SVG 20010904//EN"
 "http://www.w3.org/TR/2001/REC-SVG-20010904/DTD/svg10.dtd">
<svg version="1.0" xmlns="http://www.w3.org/2000/svg"
 width="900.000000pt" height="940.000000pt" viewBox="0 0 900.000000 940.000000"
 preserveAspectRatio="xMidYMid meet">

<g transform="translate(0.000000,940.000000) scale(0.100000,-0.100000)"
fill="#000000" stroke="none">
<path d="M6270 8980 c0 -5 25 -10 55 -10 30 0 55 5 55 10 0 6 -25 10 -55 10
-30 0 -55 -4 -55 -10z"/>
<path d="M6900 7490 c-8 -5 -34 -10 -57 -10 -24 0 -43 -3 -43 -7 0 -11 -58
-43 -76 -43 -8 0 -14 -4 -14 -10 0 -5 -7 -10 -15 -10 -8 0 -15 -7 -15 -15 0
-8 -5 -15 -11 -15 -21 0 -102 -94 -115 -132 -4 -10 -10 -18 -15 -18 -5 0 -9
-6 -9 -14 0 -8 -7 -16 -15 -20 -8 -3 -15 -17 -15 -31 0 -14 -4 -25 -10 -25 -5
0 -10 -8 -10 -18 0 -10 -7 -27 -15 -38 -8 -10 -15 -33 -15 -49 0 -17 -5 -36
-10 -41 -6 -6 -13 -41 -17 -78 -3 -36 -10 -69 -14 -72 -13 -7 -11 -154 1 -154
6 0 10 -16 10 -35 0 -20 7 -52 15 -72 8 -19 15 -44 15 -54 0 -11 4 -19 10 -19
5 0 12 -11 16 -25 3 -14 10 -25 14 -25 4 0 11 -11 14 -25 4 -14 11 -25 16 -25
6 0 10 -5 10 -11 0 -13 55 -69 68 -69 5 0 15 -7 22 -15 7 -8 23 -15 36 -15 13
0 24 -4 24 -10 0 -6 37 -10 90 -10 53 0 90 4 90 10 0 6 9 10 20 10 25 0 112
55 157 99 18 17 37 31 43 31 5 0 10 6 10 14 0 8 7 16 15 20 8 3 15 12 15 21 0
8 4 15 9 15 5 0 11 8 15 18 6 18 27 54 37 62 4 3 9 15 13 28 4 12 12 22 17 22
5 0 9 14 9 30 0 17 5 30 10 30 6 0 10 7 10 16 0 9 6 30 14 47 8 18 17 52 20
77 3 25 10 78 15 119 7 51 7 94 0 135 -6 34 -13 78 -16 99 -3 20 -9 37 -13 37
-5 0 -11 14 -15 30 -4 17 -11 30 -16 30 -5 0 -9 9 -9 20 0 21 -6 30 -52 81
-16 16 -28 34 -28 39 0 6 -7 10 -15 10 -8 0 -15 3 -15 8 0 4 -15 15 -32 23
-77 37 -147 49 -178 29z"/>
<path d="M7880 6930 c0 -5 -15 -10 -33 -10 -18 0 -42 -7 -53 -15 -10 -8 -29
-15 -41 -15 -13 0 -23 -4 -23 -9 0 -5 -11 -12 -25 -15 -14 -4 -25 -11 -25 -16
0 -6 -7 -10 -15 -10 -8 0 -15 -3 -15 -8 0 -4 -16 -16 -35 -26 -19 -11 -35 -25
-35 -33 0 -7 -5 -13 -10 -13 -11 0 -70 -56 -70 -66 0 -6 -15 -24 -52 -65 -16
-16 -28 -34 -28 -39 0 -6 -4 -10 -10 -10 -5 0 -10 -5 -10 -11 0 -6 -11 -25
-25 -43 -14 -18 -25 -39 -25 -47 0 -8 -7 -23 -15 -33 -8 -11 -15 -32 -15 -47
0 -15 -6 -29 -12 -31 -10 -4 -13 -44 -13 -158 0 -114 3 -154 13 -157 6 -3 12
-15 12 -28 0 -12 7 -28 15 -35 8 -7 15 -17 15 -23 0 -5 11 -20 25 -33 14 -13
25 -28 25 -34 0 -5 7 -10 15 -10 8 0 15 -4 15 -10 0 -5 9 -10 20 -10 11 0 23
-7 26 -15 5 -12 31 -15 144 -15 110 0 142 3 154 15 8 8 22 15 30 15 15 0 31 7
76 31 8 5 29 16 47 25 18 9 37 22 44 30 6 8 15 14 20 14 8 0 149 137 149 145
0 8 65 100 73 103 4 2 7 12 7 23 0 10 5 19 10 19 6 0 10 8 10 18 0 10 7 27 15
38 8 10 15 29 15 41 0 12 4 24 9 28 6 3 13 26 17 50 3 25 10 45 15 45 5 0 9
41 9 90 0 53 -4 90 -10 90 -5 0 -10 9 -10 20 0 25 -30 101 -47 118 -7 7 -13
19 -13 26 0 6 -10 18 -21 26 -12 8 -27 21 -35 28 -7 6 -20 12 -28 12 -9 0 -16
7 -16 15 0 10 -10 15 -34 15 -19 0 -38 5 -41 10 -3 6 -46 10 -96 10 -53 0 -89
-4 -89 -10z"/>
<path d="M5746 6920 c-34 -3 -61 -11 -64 -18 -2 -6 -12 -12 -23 -12 -10 0 -19
-4 -19 -10 0 -5 -5 -10 -11 -10 -14 0 -99 -85 -99 -100 0 -5 -4 -10 -10 -10
-5 0 -12 -11 -16 -25 -3 -14 -10 -25 -15 -25 -5 0 -9 -8 -9 -19 0 -10 -7 -24
-15 -31 -8 -7 -15 -21 -15 -31 0 -11 -3 -19 -8 -19 -13 0 -34 -91 -38 -165 -3
-38 -10 -80 -16 -93 -9 -18 -9 -28 0 -42 7 -11 12 -51 12 -89 0 -39 4 -72 9
-75 5 -4 12 -25 16 -49 4 -23 10 -44 14 -47 10 -8 31 -43 37 -62 4 -10 10 -18
15 -18 5 0 9 -7 9 -15 0 -8 18 -34 40 -56 22 -23 40 -44 40 -48 0 -3 20 -18
45 -34 41 -24 56 -27 141 -28 101 -2 139 10 194 59 13 12 30 22 37 22 6 0 15
9 18 20 3 11 11 20 16 20 5 0 9 5 9 10 0 6 11 21 25 34 14 13 25 31 25 40 0 9
7 19 15 22 8 4 15 17 15 30 0 13 4 24 9 24 5 0 11 18 15 40 3 22 11 40 16 40
6 0 10 18 10 39 0 22 5 43 10 46 6 4 10 62 10 140 0 78 -4 136 -10 140 -5 3
-10 24 -10 46 0 23 -7 47 -15 55 -8 9 -15 29 -15 45 0 16 -4 29 -9 29 -5 0
-11 8 -15 18 -8 24 -26 52 -63 96 -7 8 -13 19 -13 23 0 4 -14 17 -30 28 -16
11 -30 23 -30 28 0 4 -8 7 -18 7 -10 0 -23 5 -30 12 -16 16 -110 25 -186 18z"/>
<path d="M2034 6315 c-10 -8 -29 -15 -41 -15 -13 0 -23 -4 -23 -9 0 -5 -8 -11
-17 -15 -10 -3 -27 -11 -37 -18 -33 -22 -126 -116 -126 -127 0 -6 -4 -11 -10
-11 -5 0 -12 -11 -16 -25 -3 -14 -10 -25 -14 -25 -4 0 -11 -11 -14 -25 -4 -14
-11 -25 -16 -25 -6 0 -10 -11 -10 -24 0 -13 -3 -26 -7 -28 -15 -6 -43 -70 -43
-98 0 -16 -5 -30 -10 -32 -6 -2 -13 -36 -17 -76 -3 -39 -10 -72 -14 -72 -12 0
-12 -147 0 -154 4 -3 11 -30 15 -61 3 -31 10 -63 15 -73 5 -9 17 -35 27 -57
11 -22 22 -41 27 -43 4 -2 7 -11 7 -19 0 -28 103 -133 130 -133 10 0 20 -6 23
-12 3 -10 35 -13 117 -13 82 0 114 3 118 13 2 6 15 12 28 12 13 0 24 4 24 9 0
5 9 13 21 16 29 9 179 160 179 180 0 8 7 18 15 21 8 4 15 12 15 20 0 8 5 14
10 14 6 0 10 6 10 14 0 8 6 27 14 43 29 56 46 101 46 122 0 12 5 21 10 21 6 0
10 22 10 49 0 28 4 52 9 55 14 9 21 146 11 206 -18 111 -46 200 -62 200 -4 0
-8 9 -8 20 0 12 -11 31 -25 44 -14 13 -25 26 -25 29 0 11 -59 67 -70 67 -5 0
-10 4 -10 9 0 5 -11 12 -25 15 -14 4 -25 11 -25 16 0 17 -193 12 -216 -5z"/>
<path d="M3090 5768 c-36 -5 -66 -13 -68 -18 -2 -6 -15 -10 -28 -10 -13 0 -24
-4 -24 -9 0 -5 -13 -12 -30 -16 -16 -4 -30 -11 -30 -16 0 -5 -6 -9 -13 -9 -7
0 -24 -11 -39 -25 -15 -14 -30 -25 -33 -25 -14 0 -115 -100 -115 -114 0 -3
-22 -28 -50 -56 -27 -28 -50 -57 -50 -65 0 -9 -7 -18 -15 -21 -8 -4 -15 -11
-15 -17 0 -18 -33 -87 -42 -87 -4 0 -8 -18 -8 -39 0 -23 -5 -41 -12 -43 -10
-4 -13 -43 -13 -153 0 -110 3 -149 13 -152 6 -3 12 -16 12 -29 0 -13 4 -24 9
-24 5 0 13 -10 17 -22 11 -36 109 -125 146 -132 94 -19 154 -22 192 -9 21 7
54 13 72 13 19 0 34 4 34 9 0 5 16 12 35 15 19 4 35 11 35 16 0 6 9 10 19 10
11 0 32 11 47 25 15 14 32 25 39 25 7 0 21 11 31 25 10 14 22 25 26 25 11 0
68 58 68 70 0 5 7 10 15 10 8 0 15 4 15 9 0 5 11 19 25 32 13 13 25 32 25 42
0 9 5 17 10 17 6 0 10 6 10 14 0 8 7 16 15 20 8 3 15 15 15 26 0 11 5 20 10
20 6 0 10 8 10 19 0 10 7 24 15 31 8 7 15 25 15 41 0 16 4 29 9 29 5 0 11 19
15 42 4 23 12 48 17 54 22 27 -8 274 -33 274 -4 0 -8 8 -8 18 0 19 -72 102
-89 102 -6 0 -11 6 -11 13 0 16 -44 32 -124 46 -67 12 -75 12 -166 -1z"/>
<path d="M953 5763 c-18 -2 -33 -8 -33 -14 0 -5 -11 -9 -25 -9 -14 0 -25 -4
-25 -10 0 -5 -11 -12 -25 -16 -14 -3 -25 -10 -25 -15 0 -5 -7 -9 -15 -9 -8 0
-15 -5 -15 -10 0 -10 -8 -22 -37 -55 -7 -7 -13 -18 -13 -23 0 -6 -7 -12 -15
-16 -8 -3 -15 -12 -15 -21 0 -8 -4 -15 -10 -15 -5 0 -10 -6 -10 -14 0 -15 -30
-77 -41 -86 -4 -3 -10 -24 -14 -47 -4 -24 -11 -43 -16 -43 -5 0 -9 -40 -9 -90
0 -53 -4 -90 -10 -90 -5 0 -10 -7 -10 -15 0 -8 5 -15 10 -15 6 0 10 -33 10
-79 0 -44 4 -82 9 -85 5 -4 12 -24 16 -46 4 -22 11 -42 16 -46 5 -3 9 -14 9
-25 0 -11 7 -22 15 -25 8 -4 15 -15 15 -25 0 -10 5 -19 10 -19 6 0 10 -5 10
-11 0 -6 22 -33 50 -61 28 -28 50 -54 50 -59 0 -5 7 -9 15 -9 8 0 15 -4 15
-10 0 -5 11 -10 24 -10 13 0 26 -5 28 -12 7 -19 120 -23 156 -4 17 9 40 16 52
16 11 0 20 5 20 10 0 6 7 10 15 10 8 0 15 4 15 9 0 5 8 12 18 15 24 8 82 61
82 75 0 6 4 11 9 11 5 0 13 10 17 23 4 12 10 24 13 27 14 11 41 60 41 75 0 8
5 15 10 15 6 0 10 10 10 23 0 13 7 32 15 43 8 10 15 33 15 51 0 17 5 35 10 38
6 4 10 63 10 145 0 82 -4 141 -10 145 -5 3 -10 23 -10 43 0 20 -7 46 -15 56
-8 11 -15 32 -15 48 0 15 -4 28 -10 28 -5 0 -10 7 -10 15 0 8 -4 15 -10 15 -5
0 -12 11 -16 25 -3 14 -10 25 -15 25 -5 0 -9 6 -9 14 0 8 -7 16 -15 20 -8 3
-15 12 -15 21 0 8 -4 15 -8 15 -8 0 -23 11 -69 50 -7 5 -20 10 -31 10 -10 0
-22 4 -27 9 -12 10 -117 20 -162 14z"/>
<path d="M6353 5763 c-46 -2 -83 -8 -83 -13 0 -6 -18 -10 -39 -10 -22 0 -42
-4 -46 -9 -3 -5 -20 -12 -38 -16 -43 -9 -107 -37 -107 -47 0 -4 -11 -8 -25 -8
-14 0 -25 -4 -25 -9 0 -5 -11 -12 -25 -15 -14 -4 -25 -11 -25 -16 0 -6 -10
-10 -21 -10 -12 0 -32 -11 -45 -25 -13 -14 -32 -25 -44 -25 -11 0 -20 -4 -20
-10 0 -5 -11 -12 -25 -16 -14 -3 -25 -10 -25 -15 0 -5 -4 -9 -10 -9 -5 0 -23
-12 -39 -27 -43 -40 -59 -53 -66 -53 -3 0 -22 -16 -42 -35 -20 -19 -40 -35
-44 -35 -10 0 -25 -16 -69 -70 -19 -24 -58 -66 -86 -95 -28 -28 -55 -61 -58
-73 -4 -12 -12 -22 -17 -22 -5 0 -9 -13 -9 -30 0 -16 -4 -30 -10 -30 -6 0 -10
-37 -10 -90 0 -53 4 -90 10 -90 6 0 10 -11 10 -24 0 -14 7 -31 15 -40 8 -8 15
-21 15 -30 0 -17 54 -76 70 -76 5 0 10 -4 10 -10 0 -5 11 -12 25 -16 14 -3 25
-10 25 -15 0 -5 8 -9 18 -9 9 0 26 -7 36 -15 11 -8 30 -15 42 -15 13 0 25 -4
28 -9 3 -5 35 -12 71 -16 36 -3 67 -11 70 -16 4 -5 37 -9 76 -9 38 0 69 -4 69
-9 0 -4 36 -12 80 -15 44 -4 82 -12 85 -17 4 -5 24 -9 46 -9 21 0 39 -4 39 -9
0 -5 14 -12 30 -16 17 -4 30 -11 30 -16 0 -5 11 -9 25 -9 14 0 25 -4 25 -10 0
-5 11 -12 25 -16 14 -3 25 -10 25 -15 0 -5 9 -9 20 -9 11 0 23 -7 26 -15 4 -8
10 -15 15 -15 6 0 22 -12 37 -27 16 -16 39 -38 53 -50 33 -29 49 -50 49 -63 0
-5 7 -10 15 -10 8 0 15 -5 15 -11 0 -14 25 -39 39 -39 6 0 11 -7 11 -15 0 -8
5 -15 10 -15 6 0 10 -5 10 -10 0 -12 10 -25 53 -70 15 -15 27 -33 27 -39 0 -6
5 -11 11 -11 6 0 25 -15 42 -33 41 -42 81 -67 107 -67 11 0 20 -4 20 -8 0 -17
79 -42 136 -42 58 0 144 25 144 41 0 5 11 9 25 9 16 0 25 6 25 15 0 8 7 15 15
15 8 0 15 7 15 14 0 8 11 27 25 42 14 15 25 35 25 44 0 10 7 31 15 46 8 16 15
39 15 52 0 12 5 22 10 22 6 0 10 28 10 63 0 35 5 68 10 73 14 14 14 249 0 294
-5 19 -10 81 -10 137 0 62 -4 103 -10 103 -5 0 -10 24 -10 54 0 29 -7 73 -15
96 -8 23 -15 55 -15 71 0 15 -4 30 -9 33 -5 4 -12 29 -16 56 -4 28 -11 50 -16
50 -5 0 -9 10 -9 23 0 12 -7 31 -15 41 -8 11 -15 30 -15 43 0 13 -4 23 -9 23
-5 0 -12 11 -15 25 -4 14 -11 25 -16 25 -6 0 -10 9 -10 20 0 11 -4 20 -10 20
-5 0 -10 7 -10 15 0 9 -7 18 -15 21 -8 4 -15 10 -15 15 0 9 -8 21 -37 54 -7 7
-13 18 -13 24 0 6 -5 11 -11 11 -6 0 -17 6 -24 13 -30 26 -44 37 -50 37 -3 0
-16 11 -29 25 -13 14 -32 25 -44 25 -11 0 -22 7 -26 15 -3 8 -16 15 -30 15
-14 0 -27 4 -31 9 -3 5 -19 12 -35 16 -17 4 -30 11 -30 16 0 5 -22 9 -49 9
-27 0 -51 4 -53 9 -4 11 -165 19 -275 14z"/>
<path d="M8033 5713 c-24 -2 -43 -8 -43 -14 0 -5 -13 -9 -29 -9 -16 0 -36 -7
-45 -15 -8 -8 -24 -15 -35 -15 -12 0 -21 -4 -21 -9 0 -5 -11 -12 -25 -15 -14
-4 -25 -11 -25 -16 0 -6 -5 -10 -10 -10 -6 0 -23 -11 -38 -25 -15 -14 -30 -25
-34 -25 -10 0 -98 -88 -98 -98 0 -4 -11 -19 -25 -34 -14 -15 -25 -32 -25 -38
0 -5 -4 -10 -9 -10 -4 0 -19 -22 -32 -50 -13 -27 -27 -50 -31 -50 -5 0 -8 -15
-8 -34 0 -19 -5 -36 -12 -38 -8 -3 -12 -39 -12 -118 0 -79 4 -115 12 -118 7
-2 12 -12 12 -23 0 -33 73 -129 98 -129 5 0 15 -7 22 -15 7 -8 23 -15 35 -15
13 0 25 -6 28 -12 5 -18 261 -18 279 0 7 7 27 12 45 12 18 0 33 4 33 10 0 5
11 12 25 16 14 3 25 10 25 15 0 5 11 9 24 9 13 0 26 7 30 15 3 8 13 15 22 15
9 0 27 11 40 25 13 14 26 25 29 25 11 0 85 79 85 90 0 5 7 10 15 10 8 0 15 5
15 10 0 6 11 23 25 38 14 15 25 32 25 39 0 6 3 13 8 15 4 2 15 21 26 43 10 22
25 52 32 67 8 14 14 36 14 47 0 12 5 21 10 21 6 0 10 40 10 100 0 60 -4 100
-10 100 -5 0 -10 7 -10 15 0 20 -40 95 -51 95 -5 0 -9 5 -9 11 0 13 -25 39
-38 39 -6 0 -12 7 -16 15 -3 9 -18 15 -35 15 -16 0 -31 5 -33 11 -4 12 -189
20 -265 12z"/>
<path d="M1560 4600 c-14 -4 -43 -9 -65 -9 -22 -1 -51 -8 -65 -16 -14 -8 -41
-14 -62 -15 -20 0 -38 -3 -40 -7 -1 -5 -20 -16 -40 -25 -21 -10 -55 -26 -75
-35 -21 -10 -39 -21 -41 -25 -2 -5 -15 -8 -28 -8 -13 0 -24 -4 -24 -9 0 -5
-10 -13 -22 -17 -12 -3 -33 -17 -47 -30 -14 -13 -32 -24 -39 -24 -7 0 -20 -6
-27 -12 -31 -28 -44 -38 -51 -38 -4 0 -17 -11 -30 -25 -13 -14 -27 -25 -31
-25 -5 0 -20 -11 -35 -25 -15 -14 -32 -25 -38 -25 -5 0 -10 -7 -10 -15 0 -8
-4 -15 -10 -15 -13 0 -90 -77 -90 -90 0 -5 -4 -10 -9 -10 -10 0 -71 -58 -71
-67 0 -3 -11 -16 -25 -29 -14 -13 -25 -28 -25 -34 0 -6 -7 -18 -15 -26 -8 -9
-15 -29 -15 -45 0 -16 -4 -29 -10 -29 -6 0 -10 -37 -10 -90 0 -53 4 -90 10
-90 6 0 10 -11 10 -24 0 -13 7 -29 15 -36 8 -7 15 -19 15 -26 0 -8 5 -14 10
-14 6 0 10 -7 10 -15 0 -8 4 -15 9 -15 4 0 25 -16 45 -35 21 -19 48 -38 62
-41 13 -3 24 -10 24 -15 0 -5 14 -9 31 -9 17 0 37 -7 45 -15 9 -8 33 -15 55
-15 21 0 39 -4 39 -10 0 -5 24 -10 54 -10 29 0 73 -7 96 -15 23 -8 73 -15 111
-15 38 0 69 -4 69 -9 0 -5 23 -11 52 -13 29 -3 54 -11 56 -17 2 -6 13 -11 24
-11 26 0 98 -31 98 -42 0 -4 11 -8 25 -8 14 0 25 -4 25 -10 0 -5 17 -17 38
-27 36 -17 188 -162 227 -217 11 -16 32 -42 48 -58 15 -16 27 -31 27 -34 0
-10 109 -114 119 -114 6 0 11 -5 11 -11 0 -15 26 -39 43 -39 8 0 20 -7 27 -15
7 -8 23 -15 35 -15 13 0 25 -5 27 -12 3 -8 36 -12 108 -12 72 0 105 4 108 12
2 7 13 12 23 12 11 0 30 11 43 25 13 14 28 25 35 25 6 0 11 7 11 15 0 8 4 15
9 15 5 0 12 11 15 25 4 14 11 25 16 25 6 0 10 11 10 25 0 14 4 25 10 25 5 0
13 18 16 40 4 22 10 40 14 40 5 0 11 30 14 68 2 37 9 106 14 154 6 51 6 114 1
155 -5 37 -11 113 -15 168 -3 55 -9 109 -14 120 -5 11 -11 53 -14 94 -3 41 -9
77 -14 80 -5 3 -12 24 -15 46 -7 54 -30 142 -40 151 -4 4 -7 18 -7 31 0 14 -7
31 -15 39 -8 9 -15 24 -15 35 0 10 -4 19 -10 19 -5 0 -10 8 -10 19 0 10 -7 24
-15 31 -8 7 -15 19 -15 27 0 8 -6 21 -12 28 -28 31 -38 44 -38 51 0 4 -16 21
-35 40 -19 18 -35 37 -35 43 0 6 -5 11 -11 11 -7 0 -22 11 -35 25 -13 14 -28
25 -34 25 -5 0 -10 5 -10 10 0 6 -6 10 -14 10 -7 0 -19 7 -26 15 -7 8 -21 15
-31 15 -11 0 -19 3 -19 8 0 8 -90 42 -113 42 -8 0 -17 5 -19 12 -3 7 -32 13
-74 16 -38 2 -73 8 -78 13 -12 11 -171 10 -206 -1z"/>
<path d="M3230 4550 c0 -5 -9 -10 -21 -10 -12 0 -37 -7 -57 -16 -77 -34 -107
-49 -110 -56 -2 -5 -9 -8 -15 -8 -7 0 -24 -11 -39 -25 -15 -14 -32 -25 -38
-25 -5 0 -10 -7 -10 -15 0 -8 -4 -15 -10 -15 -5 0 -28 -18 -50 -40 -22 -22
-40 -44 -40 -50 0 -5 -7 -10 -15 -10 -8 0 -15 -7 -15 -15 0 -8 -4 -15 -10 -15
-5 0 -10 -6 -10 -13 0 -7 -11 -24 -23 -37 -13 -14 -27 -38 -31 -53 -3 -15 -11
-27 -16 -27 -6 0 -10 -15 -10 -34 0 -19 -5 -36 -12 -38 -17 -6 -18 -230 0
-235 6 -3 12 -18 12 -34 0 -17 6 -32 15 -35 8 -4 15 -10 15 -15 0 -20 81 -89
104 -89 13 0 26 -5 28 -12 13 -37 280 -38 333 -2 11 8 29 14 41 14 12 0 24 3
26 8 4 9 66 42 79 42 6 0 20 10 32 23 22 22 49 41 77 54 21 10 40 30 40 42 0
6 7 11 15 11 8 0 15 5 15 11 0 6 6 17 13 24 29 33 37 45 37 55 0 5 7 10 15 10
8 0 15 7 15 15 0 8 5 15 10 15 6 0 10 9 10 21 0 11 7 27 15 35 8 9 15 26 15
40 0 13 3 24 8 24 4 0 15 22 25 49 18 52 24 211 8 211 -5 0 -12 18 -16 40 -4
22 -11 40 -16 40 -5 0 -9 5 -9 10 0 20 -68 90 -87 90 -7 0 -13 4 -13 10 0 5
-18 13 -40 16 -22 4 -40 10 -40 15 0 5 -56 9 -125 9 -77 0 -125 -4 -125 -10z"/>
<path d="M3350 1010 c0 -5 18 -10 40 -10 22 0 40 5 40 10 0 6 -18 10 -40 10
-22 0 -40 -4 -40 -10z"/>
</g>
</svg>
